<?xml version="1.0" encoding="UTF-8"?>
<svg width="800" height="600" viewBox="0 0 800 600" xmlns="http://www.w3.org/2000/svg">
    <!-- Background Gradient -->
    <defs>
        <linearGradient id="bg-gradient" x1="0%" y1="0%" x2="100%" y2="100%">
            <stop offset="0%" style="stop-color:#f8f9fa;stop-opacity:1" />
            <stop offset="100%" style="stop-color:#e9ecef;stop-opacity:1" />
        </linearGradient>
    </defs>
    <rect width="800" height="600" fill="url(#bg-gradient)" />

    <!-- Central Building (Mother Company) -->
    <g transform="translate(350,250)">
        <rect x="-40" y="-60" width="80" height="120" fill="#0d6efd" />
        <rect x="-30" y="-50" width="20" height="20" fill="#ffffff" />
        <rect x="10" y="-50" width="20" height="20" fill="#ffffff" />
        <rect x="-30" y="-20" width="20" height="20" fill="#ffffff" />
        <rect x="10" y="-20" width="20" height="20" fill="#ffffff" />
        <rect x="-30" y="10" width="20" height="20" fill="#ffffff" />
        <rect x="10" y="10" width="20" height="20" fill="#ffffff" />
    </g>

    <!-- Franchise Locations (Connected Buildings) -->
    <g transform="translate(200,300)">
        <rect x="-30" y="-40" width="60" height="80" fill="#198754" />
        <line x1="30" y1="0" x2="110" y2="-50" stroke="#0d6efd" stroke-width="3" />
    </g>
    <g transform="translate(500,300)">
        <rect x="-30" y="-40" width="60" height="80" fill="#198754" />
        <line x1="-30" y1="0" x2="-110" y2="-50" stroke="#0d6efd" stroke-width="3" />
    </g>
    <g transform="translate(350,400)">
        <rect x="-30" y="-40" width="60" height="80" fill="#198754" />
        <line x1="0" y1="-40" x2="0" y2="-90" stroke="#0d6efd" stroke-width="3" />
    </g>

    <!-- Service Icons -->
    <g transform="translate(180,280)">
        <circle cx="0" cy="0" r="15" fill="#ffc107" />
        <path d="M-8,-8 L8,8 M-8,8 L8,-8" stroke="#ffffff" stroke-width="3" />
    </g>
    <g transform="translate(480,280)">
        <circle cx="0" cy="0" r="15" fill="#ffc107" />
        <path d="M-8,-8 L8,8 M-8,8 L8,-8" stroke="#ffffff" stroke-width="3" />
    </g>

    <!-- Data Flow Animation -->
    <g>
        <circle cx="250" cy="250" r="5" fill="#0dcaf0">
            <animate attributeName="opacity" values="1;0" dur="2s" repeatCount="indefinite" />
        </circle>
        <circle cx="450" cy="250" r="5" fill="#0dcaf0">
            <animate attributeName="opacity" values="1;0" dur="2s" repeatCount="indefinite" begin="0.5s" />
        </circle>
        <circle cx="350" cy="350" r="5" fill="#0dcaf0">
            <animate attributeName="opacity" values="1;0" dur="2s" repeatCount="indefinite" begin="1s" />
        </circle>
    </g>

    <!-- Growth Chart -->
    <g transform="translate(600,150)">
        <polyline points="0,80 30,60 60,40 90,10" fill="none" stroke="#198754" stroke-width="3" />
        <circle cx="0" cy="80" r="4" fill="#198754" />
        <circle cx="30" cy="60" r="4" fill="#198754" />
        <circle cx="60" cy="40" r="4" fill="#198754" />
        <circle cx="90" cy="10" r="4" fill="#198754" />
    </g>

    <!-- Inventory Icons -->
    <g transform="translate(100,150)">
        <rect x="-20" y="-20" width="40" height="40" fill="#6c757d" />
        <rect x="-15" y="-15" width="30" height="30" fill="none" stroke="#ffffff" stroke-width="2" />
    </g>
</svg>